<?xml version="1.0" encoding="UTF-8"?>
<svg id="Layer_1" xmlns="http://www.w3.org/2000/svg" width="1260.87" height="430.66" viewBox="0 0 1260.87 430.66">
  <path d="M49.7,429.76c.19.3.37.6.55.9,74.14-38.96,150.97-73.07,228.37-101.38l12.89-4.72c10.81-3.96,21.57-7.9,32.27-11.79,17.84,45.9,50.37,85.22,98.26,104.08,19.9,7.84,41.77,11.71,64.21,11.71,31.42,0,63.98-7.6,93.85-22.53,42.79-21.39,72.96-54.08,82.74-89.65,5.33-19.31,4.69-35.45,1.71-48.22,2.85,2.04,5.62,4.19,8.25,6.55,27.86,24.98,46.45,62.39,46.6,62.72,11.1,22.77,17.99,47.21,20.47,72.63l61.99-2.89,1.47-376.37-62.14-.24-.88,225.65c-7.62-9.47-16.34-19.06-26.02-27.75-80.71-72.36-202.08-46.66-344.68,2.11-.5-16.66,1.17-33.24,5.19-48.63,12.77-48.93,59.61-118.7,119.34-112.75,56.73,5.55,88.39,74.82,88.7,75.51l56.71-25.4c-4.72-10.52-48.68-103.09-139.36-111.96-68.15-6.67-156.24,46.77-185.51,158.88-7.03,26.88-8.84,56.45-5.59,85.77-12.86,4.66-25.84,9.41-38.96,14.22l-12.86,4.71c-13.87,5.07-27.71,10.32-41.52,15.75,49.02-55.13,88.27-109.32,73.88-172.77C275.6,52.02,216.26.93,157.35,0c-.64,0-1.27,0-1.91,0C65.17,0,2.27,100.25,0,194.81l62.12,1.49c1.91-79.41,50.62-134.17,93.48-134.17.26,0,.52,0,.78,0,30.35.47,64.98,31.69,72.65,65.51,9.6,42.34-31.86,87.59-84.35,144.87l-1.01,1.11c-28.81,31.43-61.15,59.86-95.44,84.02l-1.59,1c-4.7,2.94-15.7,9.82-28.81,19.16l.02.03-.11.04c6.04,9.81,12.08,19.62,18.13,29.43,4.61,7.48,9.22,14.97,13.83,22.45ZM602.94,299.88c-4.97,18.07-24.37,37.46-50.62,50.58-35.68,17.83-75.88,21.04-107.51,8.57-29.5-11.62-50.35-36.85-62.55-67.05,30.76-10.6,60.61-20.15,89-27.76,74.77-18.29,122.08-3.59,131.11,13.46,2.01,3.8,3.74,10.72.57,22.19Z"/>
  <polygon points="906.33 92.68 906.33 42.51 925.93 42.51 925.93 30.68 873.69 30.68 873.69 42.51 893.21 42.51 893.21 92.68 906.33 92.68"/>
  <path d="M966.3,86.63c2.1-2.19,3.74-4.74,4.92-7.64,1.18-2.91,1.77-6.03,1.77-9.37s-.59-6.53-1.77-9.41c-1.18-2.88-2.82-5.41-4.92-7.6-2.1-2.19-4.58-3.89-7.43-5.1-2.85-1.21-5.94-1.81-9.28-1.81s-6.43.6-9.28,1.81c-2.85,1.21-5.32,2.91-7.42,5.1-2.1,2.19-3.74,4.72-4.92,7.6-1.18,2.88-1.77,6.01-1.77,9.41s.59,6.46,1.77,9.37c1.18,2.91,2.82,5.45,4.92,7.64,2.1,2.19,4.58,3.89,7.42,5.09,2.85,1.21,5.94,1.82,9.28,1.82s6.43-.61,9.28-1.82c2.85-1.21,5.32-2.91,7.43-5.09ZM955.12,81.36c-1.67,1.04-3.51,1.55-5.53,1.55s-3.79-.52-5.48-1.55c-1.7-1.03-3.05-2.55-4.06-4.53-1.01-1.99-1.51-4.39-1.51-7.21s.5-5.3,1.51-7.25c1.01-1.96,2.36-3.44,4.06-4.45,1.7-1.01,3.52-1.51,5.48-1.51s3.85.5,5.53,1.51c1.67,1.01,3.01,2.49,4.02,4.45,1.01,1.96,1.51,4.37,1.51,7.25s-.5,5.22-1.51,7.21c-1.01,1.98-2.35,3.5-4.02,4.53Z"/>
  <path d="M988.54,88.01c2.99,1.96,6.36,2.94,10.1,2.94,2.82,0,5.35-.62,7.6-1.86,2.25-1.24,4-2.95,5.27-5.14v6.73c0,3.34-.85,5.87-2.55,7.6-1.7,1.73-4.22,2.59-7.55,2.59-2.88,0-5.12-.68-6.74-2.03-1.61-1.36-2.56-3.35-2.85-6h-11.57c.17,3.51,1.15,6.58,2.94,9.2,1.78,2.62,4.26,4.63,7.43,6.04,3.16,1.41,6.79,2.11,10.88,2.11,6.85,0,12.22-1.74,16.1-5.22,3.88-3.48,5.83-8.3,5.83-14.46v-43.95h-10.97v6.3c-1.67-2.42-3.69-4.22-6.04-5.4-2.36-1.18-5.1-1.77-8.2-1.77-3.8,0-7.15.95-10.06,2.85-2.91,1.9-5.18,4.55-6.82,7.94-1.64,3.4-2.46,7.34-2.46,11.83s.86,8.19,2.59,11.62c1.73,3.43,4.09,6.12,7.08,8.07ZM993.63,59.39c1.84-2.22,4.29-3.33,7.34-3.33s5.7,1.12,7.6,3.37c1.9,2.25,2.85,5.24,2.85,8.98,0,2.42-.43,4.55-1.29,6.39-.86,1.85-2.07,3.27-3.63,4.27-1.55,1.01-3.4,1.51-5.53,1.51-3.05,0-5.5-1.11-7.34-3.32-1.84-2.22-2.76-5.19-2.76-8.94s.92-6.72,2.76-8.93Z"/>
  <path d="M1073.5,53.47c-2.02-2.47-4.51-4.38-7.47-5.74-2.97-1.35-6.26-2.03-9.89-2.03-4.43,0-8.38,1.02-11.83,3.07-3.45,2.04-6.16,4.85-8.12,8.42-1.96,3.57-2.94,7.66-2.94,12.26s.95,8.98,2.85,12.61c1.9,3.62,4.59,6.43,8.07,8.42,3.48,1.99,7.52,2.98,12.13,2.98,5.64,0,10.36-1.44,14.16-4.32,3.8-2.88,6.36-6.91,7.68-12.09h-11.92c-.69,2.25-1.9,4-3.63,5.27-1.73,1.27-3.91,1.9-6.56,1.9-2.3,0-4.26-.58-5.87-1.73-1.61-1.15-2.82-2.82-3.63-5.01-.52-1.41-.81-3.1-.99-4.92h32.68c.57-3.74.43-7.24-.43-10.49-.86-3.25-2.3-6.11-4.32-8.59ZM1045.67,64.96c.21-1.35.52-2.57.93-3.67.83-2.22,2.03-3.9,3.58-5.05,1.55-1.15,3.45-1.72,5.7-1.72,2.82,0,5.11.94,6.86,2.8,1.76,1.87,2.69,4.42,2.81,7.65h-19.88Z"/>
  <path d="M1103.89,32.92h-11.92v13.65h-9.32v10.27h9.32v20.9c0,3.4.63,6.29,1.9,8.68,1.27,2.39,3.06,4.17,5.4,5.35,2.33,1.18,5.05,1.77,8.16,1.77,1.78,0,3.41-.16,4.88-.47,1.47-.32,2.92-.85,4.36-1.6v-10.45c-.81.46-1.73.82-2.76,1.08-1.04.26-2.13.39-3.28.39-2.13,0-3.79-.59-4.97-1.77-1.18-1.18-1.77-3.09-1.77-5.74v-18.13h13.21v-10.27h-13.21v-13.65Z"/>
  <path d="M1151.73,45.71c-3.05,0-5.63.62-7.73,1.86-2.1,1.24-3.93,2.92-5.48,5.05v-21.93h-12v62h12v-25.13c0-2.53.39-4.62,1.16-6.26.78-1.64,1.84-2.88,3.2-3.71,1.35-.84,2.83-1.25,4.45-1.25,2.7,0,4.73.91,6.09,2.72,1.35,1.82,2.03,4.45,2.03,7.9v25.73h11.92v-29.79c0-5.53-1.44-9.77-4.32-12.73-2.88-2.97-6.65-4.45-11.31-4.45Z"/>
  <path d="M1217.01,53.47c-2.02-2.47-4.51-4.38-7.47-5.74-2.97-1.35-6.26-2.03-9.89-2.03-4.44,0-8.38,1.02-11.83,3.07-3.45,2.04-6.16,4.85-8.12,8.42s-2.94,7.66-2.94,12.26.95,8.98,2.85,12.61c1.9,3.62,4.59,6.43,8.07,8.42,3.48,1.99,7.52,2.98,12.13,2.98,5.64,0,10.36-1.44,14.16-4.32,3.8-2.88,6.36-6.91,7.68-12.09h-11.92c-.69,2.25-1.9,4-3.63,5.27-1.73,1.27-3.92,1.9-6.56,1.9-2.3,0-4.26-.58-5.87-1.73-1.61-1.15-2.82-2.82-3.63-5.01-.52-1.41-.81-3.1-.99-4.92h32.68c.57-3.74.43-7.24-.43-10.49-.86-3.25-2.3-6.11-4.32-8.59ZM1189.18,64.96c.21-1.35.52-2.57.93-3.67.83-2.22,2.03-3.9,3.58-5.05,1.55-1.15,3.45-1.72,5.7-1.72,2.82,0,5.11.94,6.86,2.8,1.76,1.87,2.69,4.42,2.8,7.65h-19.88Z"/>
  <path d="M1250.42,48.55c-3.28,1.67-5.79,3.97-7.51,6.91v-8.89h-11.05v46.11h12v-22.37c0-3.39.72-6,2.16-7.81,1.44-1.82,3.44-2.99,6-3.54,2.56-.55,5.51-.71,8.85-.48v-12.43c-3.68,0-7.17.84-10.45,2.5Z"/>
  <rect x="878.62" y="132.84" width="13.12" height="62"/>
  <path d="M930.68,147.86c-3.05,0-5.74.66-8.07,1.98-2.33,1.33-4.36,3.14-6.09,5.44v-6.56h-11.05v46.11h12v-25.13c0-2.53.39-4.62,1.16-6.26.78-1.64,1.84-2.88,3.2-3.71,1.35-.84,2.83-1.25,4.45-1.25,2.7,0,4.73.91,6.09,2.72,1.35,1.82,2.03,4.45,2.03,7.9v25.73h11.92v-29.79c0-5.53-1.44-9.77-4.32-12.73-2.88-2.97-6.65-4.45-11.31-4.45Z"/>
  <path d="M989.83,154.69c-1.73-2.25-3.74-3.95-6.04-5.1-2.3-1.15-4.83-1.73-7.6-1.73-4.09,0-7.67,1.04-10.75,3.11-3.08,2.08-5.47,4.93-7.16,8.55-1.7,3.63-2.55,7.72-2.55,12.26s.85,8.55,2.55,12.18c1.7,3.62,4.09,6.49,7.16,8.59,3.08,2.1,6.66,3.15,10.75,3.15,2.99,0,5.71-.66,8.16-1.99,2.45-1.32,4.59-3.16,6.43-5.53v6.65h10.97v-62h-11.92v21.85ZM988.27,178.91c-.98,1.99-2.29,3.5-3.93,4.53-1.64,1.04-3.47,1.56-5.48,1.56-2.94,0-5.47-1.12-7.6-3.37-2.13-2.25-3.19-5.53-3.19-9.84s1.06-7.76,3.19-9.97c2.13-2.22,4.66-3.32,7.6-3.32,1.96,0,3.76.49,5.4,1.47,1.64.98,2.96,2.45,3.97,4.4s1.51,4.37,1.51,7.25-.49,5.31-1.47,7.3Z"/>
  <polygon points="1033.52 180.33 1021.95 148.73 1009 148.73 1027.13 194.32 1020.57 211.5 1033.61 211.5 1056.06 148.73 1044.05 148.73 1033.52 180.33"/>
</svg>